<svg width="21" height="20" viewBox="0 0 21 20" fill="none" xmlns="http://www.w3.org/2000/svg">
<path d="M8.93331 20C8.08331 20 7.43765 19.746 6.99631 19.238C6.55431 18.7293 6.33331 18.15 6.33331 17.5C6.33331 17.0667 6.42931 16.646 6.62131 16.238C6.81265 15.8293 7.10831 15.4917 7.50831 15.225C7.87498 14.9917 8.17065 14.6917 8.39531 14.325C8.62065 13.9583 8.77498 13.5667 8.85831 13.15L8.55831 13C8.45831 12.95 8.36665 12.8917 8.28331 12.825L5.98331 13.65C5.69998 13.75 5.42498 13.8333 5.15831 13.9C4.89165 13.9667 4.61665 14 4.33331 14C3.28331 14 2.35398 13.5417 1.54531 12.625C0.737313 11.7083 0.333313 10.3667 0.333313 8.6C0.333313 7.75 0.587646 7.104 1.09631 6.662C1.60431 6.22067 2.17498 6 2.80831 6C3.24165 6 3.66665 6.09567 4.08331 6.287C4.49998 6.479 4.84165 6.775 5.10831 7.175C5.34165 7.54167 5.64165 7.83733 6.00831 8.062C6.37498 8.28733 6.76665 8.44167 7.18331 8.525L7.33331 8.225C7.38331 8.125 7.44165 8.03333 7.50831 7.95L6.68331 5.65C6.58331 5.36667 6.49998 5.09167 6.43331 4.825C6.36665 4.55833 6.33331 4.29167 6.33331 4.025C6.33331 2.95833 6.79165 2.02067 7.70831 1.212C8.62498 0.404 9.96665 0 11.7333 0C12.5833 0 13.2293 0.254 13.6713 0.762C14.1126 1.27067 14.3333 1.84167 14.3333 2.475C14.3333 2.90833 14.2376 3.33333 14.0463 3.75C13.8543 4.16667 13.5583 4.50833 13.1583 4.775C12.7916 5.00833 12.496 5.30833 12.2713 5.675C12.046 6.04167 11.8916 6.43333 11.8083 6.85L12.1083 7C12.2083 7.05 12.3 7.10833 12.3833 7.175L14.6833 6.325C14.9666 6.225 15.2376 6.14567 15.4963 6.087C15.7543 6.029 16.025 6 16.3083 6C17.6583 6 18.6666 6.55833 19.3333 7.675C20 8.79167 20.3333 10.0333 20.3333 11.4C20.3333 12.25 20.0666 12.8957 19.5333 13.337C19 13.779 18.4083 14 17.7583 14C17.3416 14 16.9373 13.904 16.5453 13.712C16.154 13.5207 15.825 13.225 15.5583 12.825C15.325 12.4583 15.025 12.1627 14.6583 11.938C14.2916 11.7127 13.9 11.5583 13.4833 11.475L13.3333 11.775C13.2833 11.875 13.225 11.9667 13.1583 12.05L13.9833 14.35C14.0833 14.6167 14.1666 14.871 14.2333 15.113C14.3 15.3543 14.3333 15.6083 14.3333 15.875C14.35 16.9583 13.9 17.9167 12.9833 18.75C12.0666 19.5833 10.7166 20 8.93331 20ZM10.3333 11.5C10.75 11.5 11.104 11.354 11.3953 11.062C11.6873 10.7707 11.8333 10.4167 11.8333 10C11.8333 9.58333 11.6873 9.22933 11.3953 8.938C11.104 8.646 10.75 8.5 10.3333 8.5C9.91665 8.5 9.56265 8.646 9.27131 8.938C8.97931 9.22933 8.83331 9.58333 8.83331 10C8.83331 10.4167 8.97931 10.7707 9.27131 11.062C9.56265 11.354 9.91665 11.5 10.3333 11.5Z" fill="#02321D"/>
</svg>
