<svg width="21" height="21" viewBox="0 0 21 21" fill="none" xmlns="http://www.w3.org/2000/svg">
<path d="M9.31301 13.5C9.484 12.9717 9.72229 12.4675 10.022 12H2.25201C1.95658 12 1.66405 12.0582 1.39112 12.1713C1.11819 12.2844 0.870221 12.4501 0.661369 12.6591C0.452517 12.868 0.286878 13.1161 0.173914 13.389C0.0609499 13.662 0.00287484 13.9546 0.0030062 14.25V14.827C0.0030062 15.719 0.322006 16.583 0.902006 17.262C2.46801 19.096 4.85401 20.002 8.00001 20.002C8.93101 20.002 9.79601 19.922 10.592 19.762C10.2312 19.3471 9.92443 18.8881 9.67901 18.396C9.15501 18.466 8.59601 18.501 7.99901 18.501C5.26201 18.501 3.29601 17.756 2.04201 16.288C1.69416 15.8807 1.50304 15.3626 1.50301 14.827V14.249C1.50327 14.0503 1.58241 13.8598 1.72303 13.7193C1.86365 13.5789 2.05427 13.5 2.25301 13.5H9.31301ZM8.00001 0.00500488C8.65662 0.00500487 9.3068 0.134333 9.91342 0.385607C10.5201 0.636881 11.0712 1.00518 11.5355 1.46947C11.9998 1.93376 12.3681 2.48496 12.6194 3.09159C12.8707 3.69822 13 4.3484 13 5.005C13 5.66161 12.8707 6.31179 12.6194 6.91842C12.3681 7.52505 11.9998 8.07625 11.5355 8.54054C11.0712 9.00483 10.5201 9.37313 9.91342 9.6244C9.3068 9.87568 8.65662 10.005 8.00001 10.005C6.67392 10.005 5.40215 9.47822 4.46447 8.54054C3.52679 7.60286 3.00001 6.33109 3.00001 5.005C3.00001 3.67892 3.52679 2.40715 4.46447 1.46947C5.40215 0.531789 6.67392 0.00500488 8.00001 0.00500488ZM8.00001 1.505C7.54038 1.505 7.08525 1.59554 6.66061 1.77143C6.23597 1.94732 5.85014 2.20513 5.52513 2.53013C5.20013 2.85514 4.94232 3.24097 4.76643 3.66561C4.59054 4.09025 4.50001 4.54538 4.50001 5.005C4.50001 5.46463 4.59054 5.91976 4.76643 6.3444C4.94232 6.76904 5.20013 7.15487 5.52513 7.47988C5.85014 7.80488 6.23597 8.06269 6.66061 8.23858C7.08525 8.41448 7.54038 8.505 8.00001 8.505C8.92826 8.505 9.8185 8.13626 10.4749 7.47988C11.1313 6.8235 11.5 5.93326 11.5 5.005C11.5 4.07675 11.1313 3.18651 10.4749 2.53013C9.8185 1.87375 8.92826 1.505 8.00001 1.505ZM21 15.5C21 16.9587 20.4205 18.3576 19.3891 19.3891C18.3576 20.4205 16.9587 21 15.5 21C14.0413 21 12.6424 20.4205 11.6109 19.3891C10.5795 18.3576 10 16.9587 10 15.5C10 14.0413 10.5795 12.6424 11.6109 11.6109C12.6424 10.5795 14.0413 10 15.5 10C16.9587 10 18.3576 10.5795 19.3891 11.6109C20.4205 12.6424 21 14.0413 21 15.5ZM16.353 12.647C16.2587 12.5559 16.1324 12.5055 16.0013 12.5067C15.8702 12.5078 15.7448 12.5604 15.6521 12.6531C15.5594 12.7458 15.5068 12.8712 15.5057 13.0023C15.5045 13.1334 15.5549 13.2597 15.646 13.354L17.293 15H13C12.8674 15 12.7402 15.0527 12.6465 15.1465C12.5527 15.2402 12.5 15.3674 12.5 15.5C12.5 15.6326 12.5527 15.7598 12.6465 15.8536C12.7402 15.9473 12.8674 16 13 16H17.293L15.646 17.647C15.5549 17.7413 15.5045 17.8676 15.5057 17.9987C15.5068 18.1298 15.5594 18.2552 15.6521 18.3479C15.7448 18.4406 15.8702 18.4932 16.0013 18.4943C16.1324 18.4955 16.2587 18.4451 16.353 18.354L18.853 15.854C18.9452 15.7626 18.9979 15.6388 19 15.509V15.5C19.0001 15.4335 18.9869 15.3676 18.9611 15.3063C18.9354 15.245 18.8976 15.1895 18.85 15.143L16.353 12.647Z" fill="#07C972"/>
</svg>
