<svg width="40" height="40" viewBox="0 0 40 40" fill="none" xmlns="http://www.w3.org/2000/svg">
<path d="M20 0C8.954 0 0 8.954 0 20C0 31.046 8.954 40 20 40C31.046 40 40 31.046 40 20C40 8.954 31.046 0 20 0ZM17 12.5V27.5C17 27.8978 16.842 28.2794 16.5607 28.5607C16.2794 28.842 15.8978 29 15.5 29C15.1022 29 14.7206 28.842 14.4393 28.5607C14.158 28.2794 14 27.8978 14 27.5V12.5C14 12.1022 14.158 11.7206 14.4393 11.4393C14.7206 11.158 15.1022 11 15.5 11C15.8978 11 16.2794 11.158 16.5607 11.4393C16.842 11.7206 17 12.1022 17 12.5ZM26 12.5V27.5C26 27.8978 25.842 28.2794 25.5607 28.5607C25.2794 28.842 24.8978 29 24.5 29C24.1022 29 23.7206 28.842 23.4393 28.5607C23.158 28.2794 23 27.8978 23 27.5V12.5C23 12.1022 23.158 11.7206 23.4393 11.4393C23.7206 11.158 24.1022 11 24.5 11C24.8978 11 25.2794 11.158 25.5607 11.4393C25.842 11.7206 26 12.1022 26 12.5Z" fill="#F2F2F2"/>
</svg>
