<svg width="18" height="18" viewBox="0 0 18 18" fill="none" xmlns="http://www.w3.org/2000/svg">
<path d="M0 1.753C0 0.345003 1.578 -0.486997 2.74 0.309004L13.238 7.503C13.4716 7.66315 13.6629 7.87762 13.7954 8.12798C13.9279 8.37835 13.9976 8.65713 13.9986 8.94038C13.9996 9.22363 13.9318 9.50289 13.801 9.75417C13.6703 10.0054 13.4805 10.2212 13.248 10.383L2.749 17.685C1.59 18.492 0 17.66 0 16.248V1.753ZM18 0.750004C18 0.551091 17.921 0.360326 17.7803 0.219673C17.6397 0.079021 17.4489 3.48987e-06 17.25 3.48987e-06C17.0511 3.48987e-06 16.8603 0.079021 16.7197 0.219673C16.579 0.360326 16.5 0.551091 16.5 0.750004V17.25C16.5 17.4489 16.579 17.6397 16.7197 17.7803C16.8603 17.921 17.0511 18 17.25 18C17.4489 18 17.6397 17.921 17.7803 17.7803C17.921 17.6397 18 17.4489 18 17.25V0.750004Z" fill="white"/>
</svg>
