<svg width="40" height="40" viewBox="0 0 40 40" fill="none" xmlns="http://www.w3.org/2000/svg">
<path d="M0 20C0 8.954 8.954 0 20 0C31.046 0 40 8.954 40 20C40 31.046 31.046 40 20 40C8.954 40 0 31.046 0 20ZM17.712 12.31C17.3315 12.0991 16.9025 11.9911 16.4674 11.9968C16.0323 12.0024 15.6063 12.1216 15.2314 12.3424C14.8565 12.5631 14.5457 12.8779 14.3297 13.2557C14.1137 13.6334 14.0001 14.0609 14 14.496V25.504C14.0001 25.9391 14.1137 26.3666 14.3297 26.7443C14.5457 27.1221 14.8565 27.4369 15.2314 27.6576C15.6063 27.8784 16.0323 27.9975 16.4674 28.0032C16.9025 28.0089 17.3315 27.9009 17.712 27.69L29.226 21.312C29.4602 21.1822 29.6554 20.9921 29.7913 20.7614C29.9272 20.5307 29.9989 20.2678 29.9989 20C29.9989 19.7322 29.9272 19.4693 29.7913 19.2386C29.6554 19.0079 29.4602 18.8178 29.226 18.688L17.712 12.31Z" fill="#F2F2F2"/>
</svg>
