<svg width="18" height="19" viewBox="0 0 18 19" fill="none" xmlns="http://www.w3.org/2000/svg">
<path d="M0 0.750004C0 0.551091 0.0790175 0.360326 0.21967 0.219673C0.360322 0.079021 0.551088 3.48987e-06 0.75 3.48987e-06C0.948912 3.48987e-06 1.13968 0.079021 1.28033 0.219673C1.42098 0.360326 1.5 0.551091 1.5 0.750004V17.25C1.5 17.4489 1.42098 17.6397 1.28033 17.7803C1.13968 17.921 0.948912 18 0.75 18C0.551088 18 0.360322 17.921 0.21967 17.7803C0.0790175 17.6397 0 17.4489 0 17.25V0.750004ZM18 1.753C18 0.345003 16.422 -0.486997 15.26 0.309004L4.763 7.503C4.52936 7.66315 4.33809 7.87762 4.20561 8.12798C4.07313 8.37835 4.00341 8.65713 4.00243 8.94038C4.00144 9.22363 4.06923 9.50289 4.19997 9.75417C4.3307 10.0054 4.52048 10.2212 4.753 10.383L15.252 17.685C16.412 18.492 18.001 17.661 18.001 16.248L18 1.753Z" fill="white"/>
</svg>
